<mxfile host="app.diagrams.net" agent="Mozilla/5.0 (Windows NT 10.0; Win64; x64) AppleWebKit/537.36 (KHTML, like Gecko) Chrome/135.0.0.0 Safari/537.36" version="26.2.9">
  <diagram name="Page-1" id="STnHS9eQs5rwX8lgGzz5">
    <mxGraphModel dx="924" dy="594" grid="1" gridSize="10" guides="1" tooltips="1" connect="1" arrows="1" fold="1" page="1" pageScale="1" pageWidth="1654" pageHeight="1169" math="0" shadow="0">
      <root>
        <mxCell id="0" />
        <mxCell id="1" parent="0" />
        <mxCell id="lqGyyjWY5NM0c0FbPmfU-131" value="&lt;font style=&quot;font-size: 11px;&quot;&gt;general&lt;br&gt;manager&lt;/font&gt;" style="text;html=1;align=center;verticalAlign=middle;resizable=0;points=[];autosize=1;strokeColor=none;fillColor=none;" parent="1" vertex="1">
          <mxGeometry x="776.5" y="170" width="70" height="40" as="geometry" />
        </mxCell>
        <mxCell id="lqGyyjWY5NM0c0FbPmfU-140" value="&lt;font style=&quot;font-size: 10px;&quot;&gt;Team name&lt;/font&gt;" style="text;html=1;align=center;verticalAlign=middle;resizable=0;points=[];autosize=1;strokeColor=none;fillColor=none;" parent="1" vertex="1">
          <mxGeometry x="771.5" y="208" width="80" height="30" as="geometry" />
        </mxCell>
        <mxCell id="lqGyyjWY5NM0c0FbPmfU-36" value="dates" style="text;html=1;align=center;verticalAlign=middle;resizable=0;points=[];autosize=1;strokeColor=none;fillColor=none;" parent="1" vertex="1">
          <mxGeometry x="731.25" y="500" width="50" height="30" as="geometry" />
        </mxCell>
        <mxCell id="lqGyyjWY5NM0c0FbPmfU-82" value="Game Details" style="swimlane;fontStyle=0;childLayout=stackLayout;horizontal=1;startSize=26;horizontalStack=0;resizeParent=1;resizeParentMax=0;resizeLast=0;collapsible=1;marginBottom=0;align=center;fontSize=14;" parent="1" vertex="1">
          <mxGeometry x="912.5" y="202" width="160" height="290" as="geometry">
            <mxRectangle x="1130" y="142" width="130" height="30" as="alternateBounds" />
          </mxGeometry>
        </mxCell>
        <mxCell id="lqGyyjWY5NM0c0FbPmfU-85" value="&lt;div&gt;&lt;span style=&quot;background-color: transparent; color: light-dark(rgb(0, 0, 0), rgb(255, 255, 255));&quot;&gt;min&lt;/span&gt;&lt;/div&gt;&lt;div&gt;&lt;div&gt;fg3m&lt;/div&gt;&lt;div&gt;oreb&lt;/div&gt;&lt;div&gt;dreb&lt;/div&gt;&lt;div&gt;block&lt;/div&gt;&lt;div&gt;assist&lt;/div&gt;&lt;div&gt;steal&lt;/div&gt;&lt;div&gt;turnover&lt;/div&gt;&lt;div&gt;personal_foul&lt;/div&gt;&lt;/div&gt;&lt;div&gt;&lt;div&gt;field_goal_made&lt;/div&gt;&lt;div&gt;field_goal_attempt&lt;/div&gt;&lt;div&gt;field_goal_3_attempt&lt;/div&gt;&lt;div&gt;free_throw_made&lt;/div&gt;&lt;div&gt;free_throw_attempt&lt;/div&gt;&lt;/div&gt;" style="text;strokeColor=none;fillColor=none;spacingLeft=4;spacingRight=4;overflow=hidden;rotatable=0;points=[[0,0.5],[1,0.5]];portConstraint=eastwest;fontSize=12;whiteSpace=wrap;html=1;" parent="lqGyyjWY5NM0c0FbPmfU-82" vertex="1">
          <mxGeometry y="26" width="160" height="264" as="geometry" />
        </mxCell>
        <mxCell id="lqGyyjWY5NM0c0FbPmfU-89" value="" style="ellipse;whiteSpace=wrap;html=1;aspect=fixed;" parent="1" vertex="1">
          <mxGeometry x="1142.5" y="345" width="30" height="30" as="geometry" />
        </mxCell>
        <mxCell id="lqGyyjWY5NM0c0FbPmfU-90" value="" style="endArrow=none;html=1;rounded=0;exitX=1;exitY=0.5;exitDx=0;exitDy=0;entryX=0;entryY=0.5;entryDx=0;entryDy=0;" parent="1" source="lqGyyjWY5NM0c0FbPmfU-85" target="lqGyyjWY5NM0c0FbPmfU-89" edge="1">
          <mxGeometry relative="1" as="geometry">
            <mxPoint x="1162.5" y="327.93" as="sourcePoint" />
            <mxPoint x="1142.5" y="357.93" as="targetPoint" />
          </mxGeometry>
        </mxCell>
        <mxCell id="lqGyyjWY5NM0c0FbPmfU-91" value="Team" style="text;html=1;align=center;verticalAlign=middle;resizable=0;points=[];autosize=1;strokeColor=none;fillColor=none;" parent="1" vertex="1">
          <mxGeometry x="842.5" y="258" width="50" height="30" as="geometry" />
        </mxCell>
        <mxCell id="lqGyyjWY5NM0c0FbPmfU-92" value="" style="ellipse;whiteSpace=wrap;html=1;aspect=fixed;" parent="1" vertex="1">
          <mxGeometry x="822.5" y="265.5" width="30" height="30" as="geometry" />
        </mxCell>
        <mxCell id="lqGyyjWY5NM0c0FbPmfU-94" value="" style="endArrow=none;html=1;rounded=0;exitX=1;exitY=0.5;exitDx=0;exitDy=0;entryX=0;entryY=0.5;entryDx=0;entryDy=0;" parent="1" source="lqGyyjWY5NM0c0FbPmfU-92" target="lqGyyjWY5NM0c0FbPmfU-85" edge="1">
          <mxGeometry relative="1" as="geometry">
            <mxPoint x="742.5" y="440" as="sourcePoint" />
            <mxPoint x="902.5" y="440" as="targetPoint" />
            <Array as="points">
              <mxPoint x="862.5" y="280" />
              <mxPoint x="862.5" y="360" />
            </Array>
          </mxGeometry>
        </mxCell>
        <mxCell id="lqGyyjWY5NM0c0FbPmfU-95" value="Player" style="text;html=1;align=center;verticalAlign=middle;resizable=0;points=[];autosize=1;strokeColor=none;fillColor=none;" parent="1" vertex="1">
          <mxGeometry x="1092.5" y="357.07" width="60" height="30" as="geometry" />
        </mxCell>
        <mxCell id="lqGyyjWY5NM0c0FbPmfU-96" value="" style="ellipse;whiteSpace=wrap;html=1;aspect=fixed;" parent="1" vertex="1">
          <mxGeometry x="821.5" y="520" width="30" height="30" as="geometry" />
        </mxCell>
        <mxCell id="lqGyyjWY5NM0c0FbPmfU-97" value="" style="endArrow=none;html=1;rounded=0;exitX=1;exitY=0.5;exitDx=0;exitDy=0;entryX=-0.001;entryY=0.612;entryDx=0;entryDy=0;entryPerimeter=0;" parent="1" source="lqGyyjWY5NM0c0FbPmfU-96" target="lqGyyjWY5NM0c0FbPmfU-85" edge="1">
          <mxGeometry relative="1" as="geometry">
            <mxPoint x="852.5" y="439" as="sourcePoint" />
            <mxPoint x="912.5" y="360" as="targetPoint" />
            <Array as="points">
              <mxPoint x="862.5" y="498" />
              <mxPoint x="862.5" y="440" />
              <mxPoint x="862.5" y="390" />
              <mxPoint x="882.5" y="390" />
            </Array>
          </mxGeometry>
        </mxCell>
        <mxCell id="lqGyyjWY5NM0c0FbPmfU-99" value="Games" style="text;html=1;align=center;verticalAlign=middle;resizable=0;points=[];autosize=1;strokeColor=none;fillColor=none;" parent="1" vertex="1">
          <mxGeometry x="832.5" y="540" width="60" height="30" as="geometry" />
        </mxCell>
        <mxCell id="lqGyyjWY5NM0c0FbPmfU-101" value="" style="endArrow=none;html=1;rounded=0;entryX=1;entryY=0;entryDx=0;entryDy=0;exitX=0;exitY=0.667;exitDx=0;exitDy=0;exitPerimeter=0;" parent="1" source="lqGyyjWY5NM0c0FbPmfU-115" target="lqGyyjWY5NM0c0FbPmfU-92" edge="1">
          <mxGeometry relative="1" as="geometry">
            <mxPoint x="852.5" y="160" as="sourcePoint" />
            <mxPoint x="849.3199999999999" y="270.5" as="targetPoint" />
            <Array as="points">
              <mxPoint x="848.5" y="160" />
            </Array>
          </mxGeometry>
        </mxCell>
        <mxCell id="lqGyyjWY5NM0c0FbPmfU-113" value="" style="endArrow=none;html=1;rounded=0;exitX=0.23;exitY=0.059;exitDx=0;exitDy=0;exitPerimeter=0;" parent="1" source="lqGyyjWY5NM0c0FbPmfU-140" edge="1">
          <mxGeometry relative="1" as="geometry">
            <mxPoint x="792.5" y="210" as="sourcePoint" />
            <mxPoint x="842.5" y="210" as="targetPoint" />
          </mxGeometry>
        </mxCell>
        <mxCell id="lqGyyjWY5NM0c0FbPmfU-115" value="Owner" style="text;html=1;align=center;verticalAlign=middle;resizable=0;points=[];autosize=1;strokeColor=none;fillColor=none;" parent="1" vertex="1">
          <mxGeometry x="772.5" y="140" width="60" height="30" as="geometry" />
        </mxCell>
        <mxCell id="lqGyyjWY5NM0c0FbPmfU-116" value="" style="ellipse;whiteSpace=wrap;html=1;aspect=fixed;" parent="1" vertex="1">
          <mxGeometry x="697.5" y="188.43" width="30" height="30" as="geometry" />
        </mxCell>
        <mxCell id="lqGyyjWY5NM0c0FbPmfU-117" value="" style="ellipse;whiteSpace=wrap;html=1;aspect=fixed;" parent="1" vertex="1">
          <mxGeometry x="697.5" y="231.43" width="30" height="30" as="geometry" />
        </mxCell>
        <mxCell id="lqGyyjWY5NM0c0FbPmfU-118" value="" style="ellipse;whiteSpace=wrap;html=1;aspect=fixed;" parent="1" vertex="1">
          <mxGeometry x="697.5" y="273.43" width="30" height="30" as="geometry" />
        </mxCell>
        <mxCell id="lqGyyjWY5NM0c0FbPmfU-119" value="" style="endArrow=none;html=1;rounded=0;entryX=0;entryY=0.5;entryDx=0;entryDy=0;exitX=1;exitY=0.5;exitDx=0;exitDy=0;" parent="1" source="lqGyyjWY5NM0c0FbPmfU-117" target="lqGyyjWY5NM0c0FbPmfU-92" edge="1">
          <mxGeometry relative="1" as="geometry">
            <mxPoint x="612.5" y="360" as="sourcePoint" />
            <mxPoint x="772.5" y="360" as="targetPoint" />
          </mxGeometry>
        </mxCell>
        <mxCell id="lqGyyjWY5NM0c0FbPmfU-120" value="" style="endArrow=none;html=1;rounded=0;exitX=1;exitY=0.5;exitDx=0;exitDy=0;entryX=0;entryY=0.5;entryDx=0;entryDy=0;" parent="1" source="lqGyyjWY5NM0c0FbPmfU-116" target="lqGyyjWY5NM0c0FbPmfU-92" edge="1">
          <mxGeometry relative="1" as="geometry">
            <mxPoint x="632.5" y="360" as="sourcePoint" />
            <mxPoint x="792.5" y="360" as="targetPoint" />
          </mxGeometry>
        </mxCell>
        <mxCell id="lqGyyjWY5NM0c0FbPmfU-124" value="" style="endArrow=none;html=1;rounded=0;entryX=0;entryY=0.5;entryDx=0;entryDy=0;exitX=1;exitY=0.5;exitDx=0;exitDy=0;" parent="1" source="lqGyyjWY5NM0c0FbPmfU-118" target="lqGyyjWY5NM0c0FbPmfU-92" edge="1">
          <mxGeometry relative="1" as="geometry">
            <mxPoint x="662.5" y="320" as="sourcePoint" />
            <mxPoint x="822.5" y="320" as="targetPoint" />
          </mxGeometry>
        </mxCell>
        <mxCell id="lqGyyjWY5NM0c0FbPmfU-125" value="&lt;font style=&quot;font-size: 11px;&quot;&gt;Year Founded&lt;/font&gt;" style="text;html=1;align=center;verticalAlign=middle;resizable=0;points=[];autosize=1;strokeColor=none;fillColor=none;" parent="1" vertex="1">
          <mxGeometry x="612.5" y="273.43" width="90" height="30" as="geometry" />
        </mxCell>
        <mxCell id="lqGyyjWY5NM0c0FbPmfU-126" value="&lt;font style=&quot;font-size: 11px;&quot;&gt;Team Id&lt;/font&gt;" style="text;html=1;align=center;verticalAlign=middle;resizable=0;points=[];autosize=1;strokeColor=none;fillColor=none;" parent="1" vertex="1">
          <mxGeometry x="637.5" y="230.93" width="60" height="30" as="geometry" />
        </mxCell>
        <mxCell id="lqGyyjWY5NM0c0FbPmfU-127" value="" style="ellipse;whiteSpace=wrap;html=1;aspect=fixed;" parent="1" vertex="1">
          <mxGeometry x="627.5" y="153.43" width="30" height="30" as="geometry" />
        </mxCell>
        <mxCell id="lqGyyjWY5NM0c0FbPmfU-128" value="" style="ellipse;whiteSpace=wrap;html=1;aspect=fixed;" parent="1" vertex="1">
          <mxGeometry x="627.5" y="200.93" width="30" height="30" as="geometry" />
        </mxCell>
        <mxCell id="lqGyyjWY5NM0c0FbPmfU-129" value="" style="endArrow=none;html=1;rounded=0;exitX=1;exitY=0.5;exitDx=0;exitDy=0;entryX=0;entryY=0.5;entryDx=0;entryDy=0;" parent="1" source="lqGyyjWY5NM0c0FbPmfU-127" target="lqGyyjWY5NM0c0FbPmfU-116" edge="1">
          <mxGeometry relative="1" as="geometry">
            <mxPoint x="637.5" y="355.93" as="sourcePoint" />
            <mxPoint x="797.5" y="355.93" as="targetPoint" />
          </mxGeometry>
        </mxCell>
        <mxCell id="lqGyyjWY5NM0c0FbPmfU-130" value="" style="endArrow=none;html=1;rounded=0;exitX=1;exitY=0.5;exitDx=0;exitDy=0;entryX=0;entryY=0.5;entryDx=0;entryDy=0;" parent="1" source="lqGyyjWY5NM0c0FbPmfU-128" target="lqGyyjWY5NM0c0FbPmfU-116" edge="1">
          <mxGeometry relative="1" as="geometry">
            <mxPoint x="637.5" y="355.93" as="sourcePoint" />
            <mxPoint x="797.5" y="355.93" as="targetPoint" />
          </mxGeometry>
        </mxCell>
        <mxCell id="lqGyyjWY5NM0c0FbPmfU-132" value="&lt;font style=&quot;font-size: 11px;&quot;&gt;start_year&lt;/font&gt;" style="text;html=1;align=center;verticalAlign=middle;resizable=0;points=[];autosize=1;strokeColor=none;fillColor=none;" parent="1" vertex="1">
          <mxGeometry x="557.5" y="155" width="70" height="30" as="geometry" />
        </mxCell>
        <mxCell id="lqGyyjWY5NM0c0FbPmfU-133" value="&lt;font style=&quot;font-size: 11px;&quot;&gt;end_year&lt;/font&gt;" style="text;html=1;align=center;verticalAlign=middle;resizable=0;points=[];autosize=1;strokeColor=none;fillColor=none;" parent="1" vertex="1">
          <mxGeometry x="557.5" y="200.93" width="70" height="30" as="geometry" />
        </mxCell>
        <mxCell id="lqGyyjWY5NM0c0FbPmfU-134" value="" style="ellipse;whiteSpace=wrap;html=1;aspect=fixed;" parent="1" vertex="1">
          <mxGeometry x="697.5" y="315.93" width="30" height="30" as="geometry" />
        </mxCell>
        <mxCell id="lqGyyjWY5NM0c0FbPmfU-135" value="" style="endArrow=none;html=1;rounded=0;entryX=0;entryY=0.5;entryDx=0;entryDy=0;exitX=1;exitY=0.5;exitDx=0;exitDy=0;" parent="1" source="lqGyyjWY5NM0c0FbPmfU-134" target="lqGyyjWY5NM0c0FbPmfU-92" edge="1">
          <mxGeometry relative="1" as="geometry">
            <mxPoint x="582.5" y="410" as="sourcePoint" />
            <mxPoint x="742.5" y="410" as="targetPoint" />
          </mxGeometry>
        </mxCell>
        <mxCell id="lqGyyjWY5NM0c0FbPmfU-136" value="&lt;font style=&quot;font-size: 11px;&quot;&gt;Abbr&lt;/font&gt;" style="text;html=1;align=center;verticalAlign=middle;resizable=0;points=[];autosize=1;strokeColor=none;fillColor=none;" parent="1" vertex="1">
          <mxGeometry x="652.5" y="315.93" width="50" height="30" as="geometry" />
        </mxCell>
        <mxCell id="lqGyyjWY5NM0c0FbPmfU-137" value="" style="endArrow=none;html=1;rounded=0;entryX=0.668;entryY=0.03;entryDx=0;entryDy=0;entryPerimeter=0;" parent="1" target="lqGyyjWY5NM0c0FbPmfU-92" edge="1">
          <mxGeometry relative="1" as="geometry">
            <mxPoint x="842.5" y="210" as="sourcePoint" />
            <mxPoint x="912.5" y="250" as="targetPoint" />
          </mxGeometry>
        </mxCell>
        <mxCell id="lqGyyjWY5NM0c0FbPmfU-138" value="" style="endArrow=none;html=1;rounded=0;exitX=0.5;exitY=0;exitDx=0;exitDy=0;" parent="1" source="lqGyyjWY5NM0c0FbPmfU-92" edge="1">
          <mxGeometry relative="1" as="geometry">
            <mxPoint x="842.5" y="270" as="sourcePoint" />
            <mxPoint x="837.5" y="230" as="targetPoint" />
          </mxGeometry>
        </mxCell>
        <mxCell id="lqGyyjWY5NM0c0FbPmfU-139" value="" style="endArrow=none;html=1;rounded=0;" parent="1" edge="1">
          <mxGeometry relative="1" as="geometry">
            <mxPoint x="787.5" y="230" as="sourcePoint" />
            <mxPoint x="837.5" y="230" as="targetPoint" />
          </mxGeometry>
        </mxCell>
        <mxCell id="lqGyyjWY5NM0c0FbPmfU-142" value="" style="endArrow=none;html=1;rounded=0;entryX=0;entryY=0.5;entryDx=0;entryDy=0;exitX=1;exitY=0.5;exitDx=0;exitDy=0;" parent="1" source="lqGyyjWY5NM0c0FbPmfU-144" target="lqGyyjWY5NM0c0FbPmfU-92" edge="1">
          <mxGeometry relative="1" as="geometry">
            <mxPoint x="752.5" y="410" as="sourcePoint" />
            <mxPoint x="822.5" y="297.5" as="targetPoint" />
          </mxGeometry>
        </mxCell>
        <mxCell id="lqGyyjWY5NM0c0FbPmfU-144" value="" style="ellipse;whiteSpace=wrap;html=1;aspect=fixed;" parent="1" vertex="1">
          <mxGeometry x="697.5" y="353" width="30" height="30" as="geometry" />
        </mxCell>
        <mxCell id="lqGyyjWY5NM0c0FbPmfU-145" value="&lt;span style=&quot;font-size: 11px;&quot;&gt;City&lt;/span&gt;" style="text;html=1;align=center;verticalAlign=middle;resizable=0;points=[];autosize=1;strokeColor=none;fillColor=none;" parent="1" vertex="1">
          <mxGeometry x="676.25" y="377" width="40" height="30" as="geometry" />
        </mxCell>
        <mxCell id="Ys17MQs9ZZvH2SdcOi4z-4" value="" style="endArrow=none;html=1;rounded=0;entryX=0;entryY=0.5;entryDx=0;entryDy=0;exitX=1;exitY=0.5;exitDx=0;exitDy=0;" parent="1" source="Ys17MQs9ZZvH2SdcOi4z-5" target="lqGyyjWY5NM0c0FbPmfU-96" edge="1">
          <mxGeometry width="50" height="50" relative="1" as="geometry">
            <mxPoint x="742.5" y="460" as="sourcePoint" />
            <mxPoint x="792.5" y="498" as="targetPoint" />
          </mxGeometry>
        </mxCell>
        <mxCell id="Ys17MQs9ZZvH2SdcOi4z-5" value="" style="ellipse;whiteSpace=wrap;html=1;aspect=fixed;" parent="1" vertex="1">
          <mxGeometry x="767.5" y="590" width="30" height="30" as="geometry" />
        </mxCell>
        <mxCell id="Ys17MQs9ZZvH2SdcOi4z-6" value="home win" style="text;html=1;align=center;verticalAlign=middle;resizable=0;points=[];autosize=1;strokeColor=none;fillColor=none;" parent="1" vertex="1">
          <mxGeometry x="751.5" y="612.9300000000001" width="70" height="30" as="geometry" />
        </mxCell>
        <mxCell id="Ys17MQs9ZZvH2SdcOi4z-7" value="" style="endArrow=none;html=1;rounded=0;exitX=0.5;exitY=0;exitDx=0;exitDy=0;entryX=0.5;entryY=1;entryDx=0;entryDy=0;" parent="1" source="lqGyyjWY5NM0c0FbPmfU-96" target="lqGyyjWY5NM0c0FbPmfU-92" edge="1">
          <mxGeometry width="50" height="50" relative="1" as="geometry">
            <mxPoint x="662.5" y="340" as="sourcePoint" />
            <mxPoint x="712.5" y="290" as="targetPoint" />
            <Array as="points">
              <mxPoint x="837.5" y="390" />
            </Array>
          </mxGeometry>
        </mxCell>
        <mxCell id="Ys17MQs9ZZvH2SdcOi4z-8" value="home&lt;br&gt;Team" style="text;html=1;align=center;verticalAlign=middle;resizable=0;points=[];autosize=1;strokeColor=none;fillColor=none;" parent="1" vertex="1">
          <mxGeometry x="791.5" y="377" width="50" height="40" as="geometry" />
        </mxCell>
        <mxCell id="Ys17MQs9ZZvH2SdcOi4z-10" value="" style="endArrow=none;html=1;rounded=0;exitX=0.5;exitY=0;exitDx=0;exitDy=0;entryX=0.5;entryY=1;entryDx=0;entryDy=0;" parent="1" source="lqGyyjWY5NM0c0FbPmfU-96" target="lqGyyjWY5NM0c0FbPmfU-92" edge="1">
          <mxGeometry width="50" height="50" relative="1" as="geometry">
            <mxPoint x="762.5" y="455" as="sourcePoint" />
            <mxPoint x="812.5" y="405" as="targetPoint" />
            <Array as="points">
              <mxPoint x="772.5" y="440" />
            </Array>
          </mxGeometry>
        </mxCell>
        <mxCell id="Ys17MQs9ZZvH2SdcOi4z-11" value="Away&lt;br&gt;Team" style="text;html=1;align=center;verticalAlign=middle;resizable=0;points=[];autosize=1;strokeColor=none;fillColor=none;" parent="1" vertex="1">
          <mxGeometry x="786.5" y="440" width="50" height="40" as="geometry" />
        </mxCell>
        <mxCell id="Ys17MQs9ZZvH2SdcOi4z-12" value="" style="ellipse;whiteSpace=wrap;html=1;aspect=fixed;shadow=1;" parent="1" vertex="1">
          <mxGeometry x="726.25" y="525" width="20" height="20" as="geometry" />
        </mxCell>
        <mxCell id="Ys17MQs9ZZvH2SdcOi4z-14" value="" style="ellipse;whiteSpace=wrap;html=1;aspect=fixed;shadow=1;" parent="1" vertex="1">
          <mxGeometry x="666.25" y="525" width="20" height="20" as="geometry" />
        </mxCell>
        <mxCell id="Ys17MQs9ZZvH2SdcOi4z-15" value="month" style="text;html=1;align=center;verticalAlign=middle;resizable=0;points=[];autosize=1;strokeColor=none;fillColor=none;" parent="1" vertex="1">
          <mxGeometry x="646.25" y="500" width="60" height="30" as="geometry" />
        </mxCell>
        <mxCell id="Ys17MQs9ZZvH2SdcOi4z-17" value="" style="ellipse;whiteSpace=wrap;html=1;aspect=fixed;shadow=1;" parent="1" vertex="1">
          <mxGeometry x="616.25" y="525" width="20" height="20" as="geometry" />
        </mxCell>
        <mxCell id="Ys17MQs9ZZvH2SdcOi4z-18" value="year" style="text;html=1;align=center;verticalAlign=middle;resizable=0;points=[];autosize=1;strokeColor=none;fillColor=none;" parent="1" vertex="1">
          <mxGeometry x="600" y="498" width="50" height="30" as="geometry" />
        </mxCell>
        <mxCell id="Ys17MQs9ZZvH2SdcOi4z-19" value="" style="ellipse;whiteSpace=wrap;html=1;aspect=fixed;" parent="1" vertex="1">
          <mxGeometry x="731.25" y="530" width="10" height="10" as="geometry" />
        </mxCell>
        <mxCell id="Ys17MQs9ZZvH2SdcOi4z-20" value="" style="endArrow=none;html=1;rounded=0;exitX=0;exitY=0.5;exitDx=0;exitDy=0;entryX=1;entryY=0.5;entryDx=0;entryDy=0;" parent="1" source="lqGyyjWY5NM0c0FbPmfU-96" target="Ys17MQs9ZZvH2SdcOi4z-12" edge="1">
          <mxGeometry width="50" height="50" relative="1" as="geometry">
            <mxPoint x="632.5" y="500" as="sourcePoint" />
            <mxPoint x="682.5" y="450" as="targetPoint" />
          </mxGeometry>
        </mxCell>
        <mxCell id="Ys17MQs9ZZvH2SdcOi4z-22" value="head &lt;br&gt;coach" style="text;html=1;align=center;verticalAlign=middle;resizable=0;points=[];autosize=1;strokeColor=none;fillColor=none;" parent="1" vertex="1">
          <mxGeometry x="682.5" y="155" width="60" height="40" as="geometry" />
        </mxCell>
        <mxCell id="Ys17MQs9ZZvH2SdcOi4z-25" value="" style="endArrow=none;html=1;rounded=0;entryX=0;entryY=0.5;entryDx=0;entryDy=0;exitX=1;exitY=0;exitDx=0;exitDy=0;" parent="1" source="Ys17MQs9ZZvH2SdcOi4z-29" target="lqGyyjWY5NM0c0FbPmfU-92" edge="1">
          <mxGeometry width="50" height="50" relative="1" as="geometry">
            <mxPoint x="712.5" y="420" as="sourcePoint" />
            <mxPoint x="692.5" y="420" as="targetPoint" />
          </mxGeometry>
        </mxCell>
        <mxCell id="Ys17MQs9ZZvH2SdcOi4z-27" value="" style="endArrow=none;html=1;rounded=0;entryX=0;entryY=0.5;entryDx=0;entryDy=0;exitX=1;exitY=0.5;exitDx=0;exitDy=0;" parent="1" source="Ys17MQs9ZZvH2SdcOi4z-14" target="Ys17MQs9ZZvH2SdcOi4z-12" edge="1">
          <mxGeometry width="50" height="50" relative="1" as="geometry">
            <mxPoint x="652.5" y="560" as="sourcePoint" />
            <mxPoint x="702.5" y="510" as="targetPoint" />
          </mxGeometry>
        </mxCell>
        <mxCell id="Ys17MQs9ZZvH2SdcOi4z-28" value="" style="endArrow=none;html=1;rounded=0;entryX=0;entryY=0.5;entryDx=0;entryDy=0;exitX=1;exitY=0.5;exitDx=0;exitDy=0;" parent="1" source="Ys17MQs9ZZvH2SdcOi4z-17" target="Ys17MQs9ZZvH2SdcOi4z-14" edge="1">
          <mxGeometry width="50" height="50" relative="1" as="geometry">
            <mxPoint x="652.5" y="560" as="sourcePoint" />
            <mxPoint x="702.5" y="510" as="targetPoint" />
          </mxGeometry>
        </mxCell>
        <mxCell id="Ys17MQs9ZZvH2SdcOi4z-29" value="" style="ellipse;whiteSpace=wrap;html=1;aspect=fixed;" parent="1" vertex="1">
          <mxGeometry x="686.25" y="423" width="30" height="30" as="geometry" />
        </mxCell>
        <mxCell id="Ys17MQs9ZZvH2SdcOi4z-30" value="" style="endArrow=none;html=1;rounded=0;entryX=0.5;entryY=1;entryDx=0;entryDy=0;exitX=0.5;exitY=0;exitDx=0;exitDy=0;" parent="1" source="Ys17MQs9ZZvH2SdcOi4z-12" target="Ys17MQs9ZZvH2SdcOi4z-29" edge="1">
          <mxGeometry width="50" height="50" relative="1" as="geometry">
            <mxPoint x="742.5" y="560" as="sourcePoint" />
            <mxPoint x="632.5" y="500" as="targetPoint" />
          </mxGeometry>
        </mxCell>
        <mxCell id="Ys17MQs9ZZvH2SdcOi4z-31" value="" style="endArrow=none;html=1;rounded=0;entryX=0;entryY=0.5;entryDx=0;entryDy=0;exitX=1;exitY=0.5;exitDx=0;exitDy=0;" parent="1" source="Ys17MQs9ZZvH2SdcOi4z-32" target="Ys17MQs9ZZvH2SdcOi4z-29" edge="1">
          <mxGeometry width="50" height="50" relative="1" as="geometry">
            <mxPoint x="612.5" y="438" as="sourcePoint" />
            <mxPoint x="512.5" y="510" as="targetPoint" />
          </mxGeometry>
        </mxCell>
        <mxCell id="Ys17MQs9ZZvH2SdcOi4z-32" value="" style="ellipse;whiteSpace=wrap;html=1;aspect=fixed;" parent="1" vertex="1">
          <mxGeometry x="570" y="423" width="30" height="30" as="geometry" />
        </mxCell>
        <mxCell id="Ys17MQs9ZZvH2SdcOi4z-34" value="wins" style="text;html=1;align=center;verticalAlign=middle;resizable=0;points=[];autosize=1;strokeColor=none;fillColor=none;" parent="1" vertex="1">
          <mxGeometry x="520" y="423" width="50" height="30" as="geometry" />
        </mxCell>
        <mxCell id="Ys17MQs9ZZvH2SdcOi4z-35" value="" style="endArrow=none;html=1;rounded=0;entryX=0;entryY=0.5;entryDx=0;entryDy=0;exitX=1;exitY=0.5;exitDx=0;exitDy=0;" parent="1" source="Ys17MQs9ZZvH2SdcOi4z-36" target="Ys17MQs9ZZvH2SdcOi4z-29" edge="1">
          <mxGeometry width="50" height="50" relative="1" as="geometry">
            <mxPoint x="592.5" y="490" as="sourcePoint" />
            <mxPoint x="662.5" y="460" as="targetPoint" />
          </mxGeometry>
        </mxCell>
        <mxCell id="Ys17MQs9ZZvH2SdcOi4z-36" value="" style="ellipse;whiteSpace=wrap;html=1;aspect=fixed;" parent="1" vertex="1">
          <mxGeometry x="570" y="470" width="30" height="30" as="geometry" />
        </mxCell>
        <mxCell id="Ys17MQs9ZZvH2SdcOi4z-37" value="loose" style="text;html=1;align=center;verticalAlign=middle;resizable=0;points=[];autosize=1;strokeColor=none;fillColor=none;" parent="1" vertex="1">
          <mxGeometry x="520" y="470" width="50" height="30" as="geometry" />
        </mxCell>
        <mxCell id="Ys17MQs9ZZvH2SdcOi4z-38" value="ranking" style="text;html=1;align=center;verticalAlign=middle;resizable=0;points=[];autosize=1;strokeColor=none;fillColor=none;" parent="1" vertex="1">
          <mxGeometry x="698.5" y="441" width="60" height="30" as="geometry" />
        </mxCell>
        <mxCell id="Ys17MQs9ZZvH2SdcOi4z-40" value="conference" style="text;html=1;align=center;verticalAlign=middle;resizable=0;points=[];autosize=1;strokeColor=none;fillColor=none;" parent="1" vertex="1">
          <mxGeometry x="490" y="333" width="80" height="30" as="geometry" />
        </mxCell>
        <mxCell id="Ys17MQs9ZZvH2SdcOi4z-41" value="" style="endArrow=none;html=1;rounded=0;exitX=1;exitY=0.5;exitDx=0;exitDy=0;entryX=0;entryY=0.5;entryDx=0;entryDy=0;" parent="1" source="lqGyyjWY5NM0c0FbPmfU-89" target="Ys17MQs9ZZvH2SdcOi4z-51" edge="1">
          <mxGeometry width="50" height="50" relative="1" as="geometry">
            <mxPoint x="1202.5" y="340" as="sourcePoint" />
            <mxPoint x="1272.5" y="360" as="targetPoint" />
          </mxGeometry>
        </mxCell>
        <mxCell id="Ys17MQs9ZZvH2SdcOi4z-42" value="" style="endArrow=none;html=1;rounded=0;exitX=1;exitY=0.5;exitDx=0;exitDy=0;entryX=0;entryY=0;entryDx=0;entryDy=0;" parent="1" source="lqGyyjWY5NM0c0FbPmfU-89" target="Ys17MQs9ZZvH2SdcOi4z-49" edge="1">
          <mxGeometry width="50" height="50" relative="1" as="geometry">
            <mxPoint x="1182.5" y="370" as="sourcePoint" />
            <mxPoint x="1262.5" y="400" as="targetPoint" />
          </mxGeometry>
        </mxCell>
        <mxCell id="Ys17MQs9ZZvH2SdcOi4z-43" value="" style="endArrow=none;html=1;rounded=0;exitX=1;exitY=0.5;exitDx=0;exitDy=0;entryX=0;entryY=0;entryDx=0;entryDy=0;" parent="1" source="lqGyyjWY5NM0c0FbPmfU-89" target="Ys17MQs9ZZvH2SdcOi4z-47" edge="1">
          <mxGeometry width="50" height="50" relative="1" as="geometry">
            <mxPoint x="1192.5" y="380" as="sourcePoint" />
            <mxPoint x="1232.5" y="430" as="targetPoint" />
          </mxGeometry>
        </mxCell>
        <mxCell id="Ys17MQs9ZZvH2SdcOi4z-44" value="" style="endArrow=none;html=1;rounded=0;exitX=1;exitY=0.5;exitDx=0;exitDy=0;entryX=0.5;entryY=0;entryDx=0;entryDy=0;" parent="1" source="lqGyyjWY5NM0c0FbPmfU-89" target="Ys17MQs9ZZvH2SdcOi4z-45" edge="1">
          <mxGeometry width="50" height="50" relative="1" as="geometry">
            <mxPoint x="1202.5" y="390" as="sourcePoint" />
            <mxPoint x="1172.5" y="450" as="targetPoint" />
          </mxGeometry>
        </mxCell>
        <mxCell id="Ys17MQs9ZZvH2SdcOi4z-45" value="" style="ellipse;whiteSpace=wrap;html=1;aspect=fixed;" parent="1" vertex="1">
          <mxGeometry x="1162.5" y="453" width="30" height="30" as="geometry" />
        </mxCell>
        <mxCell id="Ys17MQs9ZZvH2SdcOi4z-46" value="gp" style="text;html=1;align=center;verticalAlign=middle;resizable=0;points=[];autosize=1;strokeColor=none;fillColor=none;" parent="1" vertex="1">
          <mxGeometry x="1157.5" y="480" width="40" height="30" as="geometry" />
        </mxCell>
        <mxCell id="Ys17MQs9ZZvH2SdcOi4z-47" value="" style="ellipse;whiteSpace=wrap;html=1;aspect=fixed;" parent="1" vertex="1">
          <mxGeometry x="1227.5" y="433" width="30" height="30" as="geometry" />
        </mxCell>
        <mxCell id="Ys17MQs9ZZvH2SdcOi4z-48" value="season" style="text;html=1;align=center;verticalAlign=middle;resizable=0;points=[];autosize=1;strokeColor=none;fillColor=none;" parent="1" vertex="1">
          <mxGeometry x="1212.5" y="460" width="60" height="30" as="geometry" />
        </mxCell>
        <mxCell id="Ys17MQs9ZZvH2SdcOi4z-49" value="" style="ellipse;whiteSpace=wrap;html=1;aspect=fixed;" parent="1" vertex="1">
          <mxGeometry x="1262.5" y="400" width="30" height="30" as="geometry" />
        </mxCell>
        <mxCell id="Ys17MQs9ZZvH2SdcOi4z-50" value="height" style="text;html=1;align=center;verticalAlign=middle;resizable=0;points=[];autosize=1;strokeColor=none;fillColor=none;" parent="1" vertex="1">
          <mxGeometry x="1247.5" y="427" width="60" height="30" as="geometry" />
        </mxCell>
        <mxCell id="Ys17MQs9ZZvH2SdcOi4z-51" value="" style="ellipse;whiteSpace=wrap;html=1;aspect=fixed;" parent="1" vertex="1">
          <mxGeometry x="1282.5" y="345" width="30" height="30" as="geometry" />
        </mxCell>
        <mxCell id="Ys17MQs9ZZvH2SdcOi4z-53" value="weight" style="text;html=1;align=center;verticalAlign=middle;resizable=0;points=[];autosize=1;strokeColor=none;fillColor=none;" parent="1" vertex="1">
          <mxGeometry x="1302.5" y="345" width="60" height="30" as="geometry" />
        </mxCell>
        <mxCell id="Ys17MQs9ZZvH2SdcOi4z-54" value="" style="endArrow=none;html=1;rounded=0;exitX=0.5;exitY=0;exitDx=0;exitDy=0;" parent="1" source="lqGyyjWY5NM0c0FbPmfU-89" edge="1">
          <mxGeometry width="50" height="50" relative="1" as="geometry">
            <mxPoint x="1192.5" y="320" as="sourcePoint" />
            <mxPoint x="1242.5" y="270" as="targetPoint" />
            <Array as="points">
              <mxPoint x="1157.5" y="270" />
            </Array>
          </mxGeometry>
        </mxCell>
        <mxCell id="Ys17MQs9ZZvH2SdcOi4z-55" value="draft year" style="text;html=1;align=center;verticalAlign=middle;resizable=0;points=[];autosize=1;strokeColor=none;fillColor=none;" parent="1" vertex="1">
          <mxGeometry x="1172.5" y="250" width="70" height="30" as="geometry" />
        </mxCell>
        <mxCell id="Ys17MQs9ZZvH2SdcOi4z-56" value="" style="endArrow=none;html=1;rounded=0;exitX=0;exitY=0;exitDx=0;exitDy=0;" parent="1" source="lqGyyjWY5NM0c0FbPmfU-89" edge="1">
          <mxGeometry width="50" height="50" relative="1" as="geometry">
            <mxPoint x="1142.5" y="280" as="sourcePoint" />
            <mxPoint x="1242.5" y="240" as="targetPoint" />
            <Array as="points">
              <mxPoint x="1146.5" y="240" />
            </Array>
          </mxGeometry>
        </mxCell>
        <mxCell id="Ys17MQs9ZZvH2SdcOi4z-57" value="draft round" style="text;html=1;align=center;verticalAlign=middle;resizable=0;points=[];autosize=1;strokeColor=none;fillColor=none;" parent="1" vertex="1">
          <mxGeometry x="1142.5" y="208" width="80" height="30" as="geometry" />
        </mxCell>
        <mxCell id="Ys17MQs9ZZvH2SdcOi4z-58" value="" style="endArrow=none;html=1;rounded=0;exitX=0;exitY=0;exitDx=0;exitDy=0;" parent="1" source="lqGyyjWY5NM0c0FbPmfU-89" edge="1">
          <mxGeometry width="50" height="50" relative="1" as="geometry">
            <mxPoint x="1142.5" y="220" as="sourcePoint" />
            <mxPoint x="1232.5" y="200" as="targetPoint" />
            <Array as="points">
              <mxPoint x="1146.5" y="200" />
            </Array>
          </mxGeometry>
        </mxCell>
        <mxCell id="Ys17MQs9ZZvH2SdcOi4z-59" value="draft number" style="text;html=1;align=center;verticalAlign=middle;resizable=0;points=[];autosize=1;strokeColor=none;fillColor=none;" parent="1" vertex="1">
          <mxGeometry x="1147.5" y="178" width="90" height="30" as="geometry" />
        </mxCell>
        <mxCell id="Ys17MQs9ZZvH2SdcOi4z-60" value="" style="endArrow=none;html=1;rounded=0;entryX=0;entryY=0.5;entryDx=0;entryDy=0;exitX=1;exitY=0.5;exitDx=0;exitDy=0;" parent="1" source="Ys17MQs9ZZvH2SdcOi4z-61" target="Ys17MQs9ZZvH2SdcOi4z-29" edge="1">
          <mxGeometry width="50" height="50" relative="1" as="geometry">
            <mxPoint x="602.5" y="390" as="sourcePoint" />
            <mxPoint x="762.5" y="450" as="targetPoint" />
          </mxGeometry>
        </mxCell>
        <mxCell id="Ys17MQs9ZZvH2SdcOi4z-61" value="" style="ellipse;whiteSpace=wrap;html=1;aspect=fixed;" parent="1" vertex="1">
          <mxGeometry x="570" y="375" width="30" height="30" as="geometry" />
        </mxCell>
        <mxCell id="Ys17MQs9ZZvH2SdcOi4z-62" value="number&lt;br&gt;of&lt;br&gt;games" style="text;html=1;align=center;verticalAlign=middle;resizable=0;points=[];autosize=1;strokeColor=none;fillColor=none;" parent="1" vertex="1">
          <mxGeometry x="500" y="363" width="60" height="60" as="geometry" />
        </mxCell>
        <mxCell id="FbbCj9CF6iNTItu20mkd-1" value="" style="ellipse;whiteSpace=wrap;html=1;aspect=fixed;" parent="1" vertex="1">
          <mxGeometry x="570" y="334.07" width="30" height="30" as="geometry" />
        </mxCell>
        <mxCell id="FbbCj9CF6iNTItu20mkd-2" value="" style="endArrow=none;html=1;rounded=0;exitX=0;exitY=0.5;exitDx=0;exitDy=0;entryX=1;entryY=1;entryDx=0;entryDy=0;" parent="1" source="Ys17MQs9ZZvH2SdcOi4z-29" target="FbbCj9CF6iNTItu20mkd-1" edge="1">
          <mxGeometry width="50" height="50" relative="1" as="geometry">
            <mxPoint x="572.5" y="360" as="sourcePoint" />
            <mxPoint x="622.5" y="310" as="targetPoint" />
          </mxGeometry>
        </mxCell>
        <mxCell id="FbbCj9CF6iNTItu20mkd-3" value="" style="endArrow=none;html=1;rounded=0;entryX=0;entryY=0.5;entryDx=0;entryDy=0;exitX=1;exitY=0.5;exitDx=0;exitDy=0;" parent="1" source="FbbCj9CF6iNTItu20mkd-1" target="lqGyyjWY5NM0c0FbPmfU-144" edge="1">
          <mxGeometry width="50" height="50" relative="1" as="geometry">
            <mxPoint x="572.5" y="360" as="sourcePoint" />
            <mxPoint x="622.5" y="310" as="targetPoint" />
          </mxGeometry>
        </mxCell>
      </root>
    </mxGraphModel>
  </diagram>
</mxfile>
